<mxfile host="65bd71144e">
    <diagram name="Page-1" id="r2_6bGvvmHpnymdjOrQg">
        <mxGraphModel dx="600" dy="357" grid="1" gridSize="10" guides="1" tooltips="1" connect="1" arrows="1" fold="1" page="1" pageScale="1" pageWidth="850" pageHeight="1100" math="0" shadow="0">
            <root>
                <mxCell id="0"/>
                <mxCell id="1" parent="0"/>
                <mxCell id="l1d5kA2Vwb8XIyjtGm8l-11" value="«component»&lt;br&gt;&lt;b&gt;Mobile App&lt;/b&gt;" style="html=1;dropTarget=0;whiteSpace=wrap;verticalAlign=top;strokeColor=#999900;" parent="1" vertex="1">
                    <mxGeometry x="20" y="400" width="675" height="320" as="geometry"/>
                </mxCell>
                <mxCell id="l1d5kA2Vwb8XIyjtGm8l-12" value="" style="shape=module;jettyWidth=8;jettyHeight=4;" parent="l1d5kA2Vwb8XIyjtGm8l-11" vertex="1">
                    <mxGeometry x="1" width="20" height="20" relative="1" as="geometry">
                        <mxPoint x="-27" y="7" as="offset"/>
                    </mxGeometry>
                </mxCell>
                <mxCell id="l1d5kA2Vwb8XIyjtGm8l-15" value="" style="group;fillColor=none;strokeColor=#0000FF;" parent="1" connectable="0" vertex="1">
                    <mxGeometry x="895" y="110" width="200" height="120" as="geometry"/>
                </mxCell>
                <mxCell id="l1d5kA2Vwb8XIyjtGm8l-7" value="«component»&lt;br&gt;&lt;b&gt;MQTT Server&lt;/b&gt;" style="html=1;dropTarget=0;whiteSpace=wrap;horizontal=1;verticalAlign=top;strokeColor=#0000FF;" parent="l1d5kA2Vwb8XIyjtGm8l-15" vertex="1">
                    <mxGeometry width="200" height="120" as="geometry"/>
                </mxCell>
                <mxCell id="l1d5kA2Vwb8XIyjtGm8l-8" value="" style="shape=module;jettyWidth=8;jettyHeight=4;" parent="l1d5kA2Vwb8XIyjtGm8l-7" vertex="1">
                    <mxGeometry x="1" width="20" height="20" relative="1" as="geometry">
                        <mxPoint x="-27" y="7" as="offset"/>
                    </mxGeometry>
                </mxCell>
                <mxCell id="l1d5kA2Vwb8XIyjtGm8l-9" value="«component»&lt;br&gt;&lt;b&gt;MQTT Broker&lt;/b&gt;" style="html=1;dropTarget=0;whiteSpace=wrap;horizontal=1;verticalAlign=middle;" parent="l1d5kA2Vwb8XIyjtGm8l-15" vertex="1">
                    <mxGeometry x="20" y="60" width="160" height="40" as="geometry"/>
                </mxCell>
                <mxCell id="l1d5kA2Vwb8XIyjtGm8l-10" value="" style="shape=module;jettyWidth=8;jettyHeight=4;" parent="l1d5kA2Vwb8XIyjtGm8l-9" vertex="1">
                    <mxGeometry x="1" width="20" height="20" relative="1" as="geometry">
                        <mxPoint x="-27" y="7" as="offset"/>
                    </mxGeometry>
                </mxCell>
                <mxCell id="l1d5kA2Vwb8XIyjtGm8l-89" value="" style="html=1;rounded=0;direction=south;" parent="l1d5kA2Vwb8XIyjtGm8l-15" vertex="1">
                    <mxGeometry x="-20" y="70" width="30" height="30" as="geometry"/>
                </mxCell>
                <mxCell id="l1d5kA2Vwb8XIyjtGm8l-26" value="" style="group" parent="1" connectable="0" vertex="1">
                    <mxGeometry x="25" y="440" width="470" height="130" as="geometry"/>
                </mxCell>
                <mxCell id="l1d5kA2Vwb8XIyjtGm8l-16" value="«component»&lt;br&gt;&lt;b&gt;Sensor Data&lt;/b&gt;" style="html=1;dropTarget=0;whiteSpace=wrap;verticalAlign=top;" parent="l1d5kA2Vwb8XIyjtGm8l-26" vertex="1">
                    <mxGeometry width="470" height="130" as="geometry"/>
                </mxCell>
                <mxCell id="l1d5kA2Vwb8XIyjtGm8l-17" value="" style="shape=module;jettyWidth=8;jettyHeight=4;" parent="l1d5kA2Vwb8XIyjtGm8l-16" vertex="1">
                    <mxGeometry x="1" width="20" height="20" relative="1" as="geometry">
                        <mxPoint x="-27" y="7" as="offset"/>
                    </mxGeometry>
                </mxCell>
                <mxCell id="l1d5kA2Vwb8XIyjtGm8l-18" value="«component»&lt;br&gt;&lt;b&gt;Temperature&lt;br&gt;Sensor&lt;br&gt;&lt;/b&gt;" style="html=1;dropTarget=0;whiteSpace=wrap;verticalAlign=top;" parent="l1d5kA2Vwb8XIyjtGm8l-26" vertex="1">
                    <mxGeometry x="10" y="65" width="140" height="54.16666666666667" as="geometry"/>
                </mxCell>
                <mxCell id="l1d5kA2Vwb8XIyjtGm8l-19" value="" style="shape=module;jettyWidth=8;jettyHeight=4;" parent="l1d5kA2Vwb8XIyjtGm8l-18" vertex="1">
                    <mxGeometry x="1" width="20" height="20" relative="1" as="geometry">
                        <mxPoint x="-27" y="7" as="offset"/>
                    </mxGeometry>
                </mxCell>
                <mxCell id="l1d5kA2Vwb8XIyjtGm8l-21" value="«component»&lt;br&gt;&lt;b&gt;Humidity&lt;br&gt;Sensor&lt;br&gt;&lt;/b&gt;" style="html=1;dropTarget=0;whiteSpace=wrap;verticalAlign=top;" parent="l1d5kA2Vwb8XIyjtGm8l-26" vertex="1">
                    <mxGeometry x="160" y="65" width="140" height="54.16666666666667" as="geometry"/>
                </mxCell>
                <mxCell id="l1d5kA2Vwb8XIyjtGm8l-22" value="" style="shape=module;jettyWidth=8;jettyHeight=4;" parent="l1d5kA2Vwb8XIyjtGm8l-21" vertex="1">
                    <mxGeometry x="1" width="20" height="20" relative="1" as="geometry">
                        <mxPoint x="-27" y="7" as="offset"/>
                    </mxGeometry>
                </mxCell>
                <mxCell id="l1d5kA2Vwb8XIyjtGm8l-23" value="«component»&lt;br&gt;&lt;b&gt;Light&lt;br&gt;Sensor&lt;br&gt;&lt;/b&gt;" style="html=1;dropTarget=0;whiteSpace=wrap;verticalAlign=top;" parent="l1d5kA2Vwb8XIyjtGm8l-26" vertex="1">
                    <mxGeometry x="305" y="65" width="140" height="54.16666666666667" as="geometry"/>
                </mxCell>
                <mxCell id="l1d5kA2Vwb8XIyjtGm8l-24" value="" style="shape=module;jettyWidth=8;jettyHeight=4;" parent="l1d5kA2Vwb8XIyjtGm8l-23" vertex="1">
                    <mxGeometry x="1" width="20" height="20" relative="1" as="geometry">
                        <mxPoint x="-27" y="7" as="offset"/>
                    </mxGeometry>
                </mxCell>
                <mxCell id="l1d5kA2Vwb8XIyjtGm8l-27" value="«component»&lt;br&gt;&lt;b&gt;Device Controller&lt;/b&gt;" style="html=1;dropTarget=0;whiteSpace=wrap;" parent="1" vertex="1">
                    <mxGeometry x="225" y="620" width="180" height="90" as="geometry"/>
                </mxCell>
                <mxCell id="l1d5kA2Vwb8XIyjtGm8l-28" value="" style="shape=module;jettyWidth=8;jettyHeight=4;" parent="l1d5kA2Vwb8XIyjtGm8l-27" vertex="1">
                    <mxGeometry x="1" width="20" height="20" relative="1" as="geometry">
                        <mxPoint x="-27" y="7" as="offset"/>
                    </mxGeometry>
                </mxCell>
                <mxCell id="l1d5kA2Vwb8XIyjtGm8l-29" value="«component»&lt;br&gt;&lt;b&gt;Authentication&lt;/b&gt;" style="html=1;dropTarget=0;whiteSpace=wrap;" parent="1" vertex="1">
                    <mxGeometry x="505" y="480" width="180" height="90" as="geometry"/>
                </mxCell>
                <mxCell id="l1d5kA2Vwb8XIyjtGm8l-30" value="" style="shape=module;jettyWidth=8;jettyHeight=4;" parent="l1d5kA2Vwb8XIyjtGm8l-29" vertex="1">
                    <mxGeometry x="1" width="20" height="20" relative="1" as="geometry">
                        <mxPoint x="-27" y="7" as="offset"/>
                    </mxGeometry>
                </mxCell>
                <mxCell id="l1d5kA2Vwb8XIyjtGm8l-48" style="rounded=0;orthogonalLoop=1;jettySize=auto;html=1;exitX=1;exitY=0.75;exitDx=0;exitDy=0;entryX=0;entryY=0.5;entryDx=0;entryDy=0;entryPerimeter=0;endArrow=none;endFill=0;" parent="1" source="l1d5kA2Vwb8XIyjtGm8l-31" target="l1d5kA2Vwb8XIyjtGm8l-45" edge="1">
                    <mxGeometry relative="1" as="geometry"/>
                </mxCell>
                <mxCell id="l1d5kA2Vwb8XIyjtGm8l-31" value="«component»&lt;br&gt;&lt;b&gt;MQTT Client&lt;/b&gt;" style="html=1;dropTarget=0;whiteSpace=wrap;" parent="1" vertex="1">
                    <mxGeometry x="505" y="620" width="180" height="90" as="geometry"/>
                </mxCell>
                <mxCell id="l1d5kA2Vwb8XIyjtGm8l-32" value="" style="shape=module;jettyWidth=8;jettyHeight=4;" parent="l1d5kA2Vwb8XIyjtGm8l-31" vertex="1">
                    <mxGeometry x="1" width="20" height="20" relative="1" as="geometry">
                        <mxPoint x="-27" y="7" as="offset"/>
                    </mxGeometry>
                </mxCell>
                <mxCell id="l1d5kA2Vwb8XIyjtGm8l-45" value="" style="shape=providedRequiredInterface;html=1;verticalLabelPosition=bottom;sketch=0;" parent="1" vertex="1">
                    <mxGeometry x="745" y="677" width="20" height="20" as="geometry"/>
                </mxCell>
                <mxCell id="l1d5kA2Vwb8XIyjtGm8l-51" value="&lt;b&gt;Message&lt;br&gt;(Publishing)&lt;/b&gt;" style="text;html=1;align=center;verticalAlign=middle;resizable=0;points=[];autosize=1;strokeColor=none;fillColor=none;" parent="1" vertex="1">
                    <mxGeometry x="710" y="697" width="90" height="40" as="geometry"/>
                </mxCell>
                <mxCell id="l1d5kA2Vwb8XIyjtGm8l-60" value="" style="rounded=0;orthogonalLoop=1;jettySize=auto;html=1;endArrow=none;endFill=0;sketch=0;sourcePerimeterSpacing=0;targetPerimeterSpacing=0;exitX=1;exitY=0.5;exitDx=0;exitDy=0;" parent="1" source="l1d5kA2Vwb8XIyjtGm8l-27" target="l1d5kA2Vwb8XIyjtGm8l-62" edge="1">
                    <mxGeometry relative="1" as="geometry">
                        <mxPoint x="315" y="672" as="sourcePoint"/>
                    </mxGeometry>
                </mxCell>
                <mxCell id="l1d5kA2Vwb8XIyjtGm8l-61" value="" style="rounded=0;orthogonalLoop=1;jettySize=auto;html=1;endArrow=halfCircle;endFill=0;entryX=0.5;entryY=0.5;endSize=6;strokeWidth=1;sketch=0;exitX=0;exitY=0.5;exitDx=0;exitDy=0;" parent="1" source="l1d5kA2Vwb8XIyjtGm8l-31" target="l1d5kA2Vwb8XIyjtGm8l-62" edge="1">
                    <mxGeometry relative="1" as="geometry">
                        <mxPoint x="355" y="672" as="sourcePoint"/>
                    </mxGeometry>
                </mxCell>
                <mxCell id="l1d5kA2Vwb8XIyjtGm8l-62" value="" style="ellipse;whiteSpace=wrap;html=1;align=center;aspect=fixed;resizable=0;points=[];outlineConnect=0;sketch=0;" parent="1" vertex="1">
                    <mxGeometry x="445" y="660" width="10" height="10" as="geometry"/>
                </mxCell>
                <mxCell id="l1d5kA2Vwb8XIyjtGm8l-63" value="&lt;b&gt;Send Signal&lt;/b&gt;" style="text;html=1;align=center;verticalAlign=middle;resizable=0;points=[];autosize=1;strokeColor=none;fillColor=none;" parent="1" vertex="1">
                    <mxGeometry x="415" y="677" width="90" height="30" as="geometry"/>
                </mxCell>
                <mxCell id="l1d5kA2Vwb8XIyjtGm8l-64" value="«component»&lt;br&gt;&lt;b&gt;Notifications&lt;/b&gt;" style="html=1;dropTarget=0;whiteSpace=wrap;" parent="1" vertex="1">
                    <mxGeometry x="25" y="620" width="180" height="90" as="geometry"/>
                </mxCell>
                <mxCell id="l1d5kA2Vwb8XIyjtGm8l-65" value="" style="shape=module;jettyWidth=8;jettyHeight=4;" parent="l1d5kA2Vwb8XIyjtGm8l-64" vertex="1">
                    <mxGeometry x="1" width="20" height="20" relative="1" as="geometry">
                        <mxPoint x="-27" y="7" as="offset"/>
                    </mxGeometry>
                </mxCell>
                <mxCell id="l1d5kA2Vwb8XIyjtGm8l-68" value="" style="group;strokeColor=#B0E2FF;" parent="1" connectable="0" vertex="1">
                    <mxGeometry x="485" y="110" width="260" height="120" as="geometry"/>
                </mxCell>
                <mxCell id="l1d5kA2Vwb8XIyjtGm8l-69" value="«component»&lt;br&gt;&lt;b&gt;Gateway Server&lt;/b&gt;" style="html=1;dropTarget=0;whiteSpace=wrap;horizontal=1;verticalAlign=top;movable=1;resizable=1;rotatable=1;deletable=1;editable=1;locked=0;connectable=1;strokeColor=#B0E2FF;" parent="l1d5kA2Vwb8XIyjtGm8l-68" vertex="1">
                    <mxGeometry width="260" height="120" as="geometry"/>
                </mxCell>
                <mxCell id="l1d5kA2Vwb8XIyjtGm8l-70" value="" style="shape=module;jettyWidth=8;jettyHeight=4;" parent="l1d5kA2Vwb8XIyjtGm8l-69" vertex="1">
                    <mxGeometry x="1" width="20" height="20" relative="1" as="geometry">
                        <mxPoint x="-27" y="7" as="offset"/>
                    </mxGeometry>
                </mxCell>
                <mxCell id="l1d5kA2Vwb8XIyjtGm8l-71" value="«component»&lt;br&gt;&lt;b&gt;Gateway Server&lt;/b&gt;" style="html=1;dropTarget=0;whiteSpace=wrap;horizontal=1;verticalAlign=middle;movable=1;resizable=1;rotatable=1;deletable=1;editable=1;locked=0;connectable=1;" parent="l1d5kA2Vwb8XIyjtGm8l-68" vertex="1">
                    <mxGeometry x="20.8" y="60" width="166.4" height="40" as="geometry"/>
                </mxCell>
                <mxCell id="l1d5kA2Vwb8XIyjtGm8l-72" value="" style="shape=module;jettyWidth=8;jettyHeight=4;" parent="l1d5kA2Vwb8XIyjtGm8l-71" vertex="1">
                    <mxGeometry x="1" width="20" height="20" relative="1" as="geometry">
                        <mxPoint x="-27" y="7" as="offset"/>
                    </mxGeometry>
                </mxCell>
                <mxCell id="l1d5kA2Vwb8XIyjtGm8l-86" value="" style="html=1;rounded=0;" parent="l1d5kA2Vwb8XIyjtGm8l-68" vertex="1">
                    <mxGeometry x="197.6" y="70" width="31.200000000000003" height="30" as="geometry"/>
                </mxCell>
                <mxCell id="l1d5kA2Vwb8XIyjtGm8l-139" style="rounded=0;orthogonalLoop=1;jettySize=auto;html=1;exitX=1;exitY=0.5;exitDx=0;exitDy=0;entryX=0;entryY=0.5;entryDx=0;entryDy=0;startArrow=none;startFill=0;endArrow=none;endFill=0;" parent="l1d5kA2Vwb8XIyjtGm8l-68" source="l1d5kA2Vwb8XIyjtGm8l-133" target="l1d5kA2Vwb8XIyjtGm8l-71" edge="1">
                    <mxGeometry relative="1" as="geometry"/>
                </mxCell>
                <mxCell id="l1d5kA2Vwb8XIyjtGm8l-133" value="" style="html=1;rounded=0;" parent="l1d5kA2Vwb8XIyjtGm8l-68" vertex="1">
                    <mxGeometry x="-20.8" y="65" width="31.200000000000003" height="30" as="geometry"/>
                </mxCell>
                <mxCell id="l1d5kA2Vwb8XIyjtGm8l-134" value="" style="endArrow=none;html=1;rounded=0;align=center;verticalAlign=top;endFill=0;labelBackgroundColor=none;endSize=2;" parent="l1d5kA2Vwb8XIyjtGm8l-68" source="l1d5kA2Vwb8XIyjtGm8l-133" target="l1d5kA2Vwb8XIyjtGm8l-135" edge="1">
                    <mxGeometry relative="1" as="geometry"/>
                </mxCell>
                <mxCell id="l1d5kA2Vwb8XIyjtGm8l-135" value="" style="shape=requiredInterface;html=1;fontSize=11;align=center;fillColor=none;points=[];aspect=fixed;resizable=0;verticalAlign=bottom;labelPosition=center;verticalLabelPosition=top;flipH=1;direction=west;" parent="l1d5kA2Vwb8XIyjtGm8l-68" vertex="1">
                    <mxGeometry x="-62.400000000000006" y="75" width="5" height="10" as="geometry"/>
                </mxCell>
                <mxCell id="l1d5kA2Vwb8XIyjtGm8l-90" value="" style="endArrow=none;html=1;rounded=0;align=center;verticalAlign=top;endFill=0;labelBackgroundColor=none;endSize=2;" parent="1" source="l1d5kA2Vwb8XIyjtGm8l-91" target="l1d5kA2Vwb8XIyjtGm8l-89" edge="1">
                    <mxGeometry relative="1" as="geometry"/>
                </mxCell>
                <mxCell id="l1d5kA2Vwb8XIyjtGm8l-91" value="" style="ellipse;html=1;fontSize=11;align=center;fillColor=none;points=[];aspect=fixed;resizable=0;verticalAlign=bottom;labelPosition=center;verticalLabelPosition=top;flipH=1;" parent="1" vertex="1">
                    <mxGeometry x="801" y="191" width="8" height="8" as="geometry"/>
                </mxCell>
                <mxCell id="l1d5kA2Vwb8XIyjtGm8l-88" value="" style="shape=requiredInterface;html=1;fontSize=11;align=center;fillColor=none;points=[];aspect=fixed;resizable=0;verticalAlign=bottom;labelPosition=center;verticalLabelPosition=top;flipH=1;" parent="1" vertex="1">
                    <mxGeometry x="797" y="190" width="5" height="10" as="geometry"/>
                </mxCell>
                <mxCell id="l1d5kA2Vwb8XIyjtGm8l-87" value="" style="endArrow=none;html=1;rounded=0;align=center;verticalAlign=top;endFill=0;labelBackgroundColor=none;endSize=2;" parent="1" source="l1d5kA2Vwb8XIyjtGm8l-86" target="l1d5kA2Vwb8XIyjtGm8l-88" edge="1">
                    <mxGeometry relative="1" as="geometry"/>
                </mxCell>
                <mxCell id="l1d5kA2Vwb8XIyjtGm8l-102" value="&lt;b&gt;Message&lt;br&gt;(Subscribing)&lt;/b&gt;" style="text;html=1;align=center;verticalAlign=middle;resizable=0;points=[];autosize=1;strokeColor=none;fillColor=none;" parent="1" vertex="1">
                    <mxGeometry x="755" y="145.86" width="100" height="40" as="geometry"/>
                </mxCell>
                <mxCell id="l1d5kA2Vwb8XIyjtGm8l-108" value="" style="html=1;rounded=0;" parent="1" vertex="1">
                    <mxGeometry x="160" y="390" width="30" height="30" as="geometry"/>
                </mxCell>
                <mxCell id="l1d5kA2Vwb8XIyjtGm8l-109" value="" style="endArrow=none;html=1;rounded=0;align=center;verticalAlign=top;endFill=0;labelBackgroundColor=none;endSize=2;" parent="1" source="l1d5kA2Vwb8XIyjtGm8l-108" target="l1d5kA2Vwb8XIyjtGm8l-110" edge="1">
                    <mxGeometry relative="1" as="geometry"/>
                </mxCell>
                <mxCell id="l1d5kA2Vwb8XIyjtGm8l-110" value="" style="shape=requiredInterface;html=1;fontSize=11;align=center;fillColor=none;points=[];aspect=fixed;resizable=0;verticalAlign=bottom;labelPosition=center;verticalLabelPosition=top;flipH=1;direction=south;" parent="1" vertex="1">
                    <mxGeometry x="170" y="342.5" width="10" height="5" as="geometry"/>
                </mxCell>
                <mxCell id="l1d5kA2Vwb8XIyjtGm8l-3" value="«component»&lt;br&gt;&lt;b&gt;Database&lt;/b&gt;" style="html=1;dropTarget=0;whiteSpace=wrap;horizontal=1;verticalAlign=top;movable=1;resizable=1;rotatable=1;deletable=1;editable=1;locked=0;connectable=1;strokeColor=#00FF00;" parent="1" vertex="1">
                    <mxGeometry x="25" y="122" width="220" height="108" as="geometry"/>
                </mxCell>
                <mxCell id="l1d5kA2Vwb8XIyjtGm8l-4" value="" style="shape=module;jettyWidth=8;jettyHeight=4;" parent="l1d5kA2Vwb8XIyjtGm8l-3" vertex="1">
                    <mxGeometry x="1" width="20" height="20" relative="1" as="geometry">
                        <mxPoint x="-27" y="7" as="offset"/>
                    </mxGeometry>
                </mxCell>
                <mxCell id="l1d5kA2Vwb8XIyjtGm8l-145" style="rounded=0;orthogonalLoop=1;jettySize=auto;html=1;entryX=1.132;entryY=0.62;entryDx=0;entryDy=0;entryPerimeter=0;endArrow=none;endFill=0;exitX=1;exitY=0.5;exitDx=0;exitDy=0;" parent="1" source="l1d5kA2Vwb8XIyjtGm8l-5" edge="1">
                    <mxGeometry relative="1" as="geometry">
                        <mxPoint x="205" y="190" as="sourcePoint"/>
                        <mxPoint x="412.9411452262502" y="189.82000000000005" as="targetPoint"/>
                    </mxGeometry>
                </mxCell>
                <mxCell id="l1d5kA2Vwb8XIyjtGm8l-5" value="«component»&lt;br&gt;&lt;b&gt;Firebase Firestore&lt;/b&gt;" style="html=1;dropTarget=0;whiteSpace=wrap;horizontal=1;verticalAlign=middle;movable=1;resizable=1;rotatable=1;deletable=1;editable=1;locked=0;connectable=1;" parent="1" vertex="1">
                    <mxGeometry x="55" y="166.00142857142853" width="160" height="45.71428571428571" as="geometry"/>
                </mxCell>
                <mxCell id="l1d5kA2Vwb8XIyjtGm8l-6" value="" style="shape=module;jettyWidth=8;jettyHeight=4;" parent="l1d5kA2Vwb8XIyjtGm8l-5" vertex="1">
                    <mxGeometry x="1" width="20" height="20" relative="1" as="geometry">
                        <mxPoint x="-27" y="7" as="offset"/>
                    </mxGeometry>
                </mxCell>
                <mxCell id="l1d5kA2Vwb8XIyjtGm8l-117" value="&lt;b&gt;&lt;font style=&quot;font-size: 14px;&quot;&gt;Firestore API&lt;/font&gt;&lt;/b&gt;" style="text;html=1;align=center;verticalAlign=middle;resizable=0;points=[];autosize=1;strokeColor=none;fillColor=none;" parent="1" vertex="1">
                    <mxGeometry x="180" y="330" width="110" height="30" as="geometry"/>
                </mxCell>
                <mxCell id="l1d5kA2Vwb8XIyjtGm8l-142" value="" style="ellipse;html=1;fontSize=11;align=center;fillColor=none;points=[];aspect=fixed;resizable=0;verticalAlign=bottom;labelPosition=center;verticalLabelPosition=top;flipH=1;" parent="1" vertex="1">
                    <mxGeometry x="414.9971452262497" y="185.86" width="8" height="8" as="geometry"/>
                </mxCell>
                <mxCell id="l1d5kA2Vwb8XIyjtGm8l-147" value="&lt;b&gt;&lt;font style=&quot;font-size: 14px;&quot;&gt;Firestore API&lt;br&gt;(read,write)&lt;br&gt;&lt;/font&gt;&lt;/b&gt;" style="text;html=1;align=center;verticalAlign=middle;resizable=0;points=[];autosize=1;strokeColor=none;fillColor=none;" parent="1" vertex="1">
                    <mxGeometry x="355" y="195" width="110" height="50" as="geometry"/>
                </mxCell>
                <mxCell id="l1d5kA2Vwb8XIyjtGm8l-149" value="" style="rounded=0;orthogonalLoop=1;jettySize=auto;html=1;endArrow=none;endFill=0;sketch=0;sourcePerimeterSpacing=0;targetPerimeterSpacing=0;entryX=0.75;entryY=1;entryDx=0;entryDy=0;" parent="1" source="l1d5kA2Vwb8XIyjtGm8l-151" target="l1d5kA2Vwb8XIyjtGm8l-5" edge="1">
                    <mxGeometry relative="1" as="geometry">
                        <mxPoint x="215" y="295" as="sourcePoint"/>
                        <mxPoint x="145" y="290" as="targetPoint"/>
                    </mxGeometry>
                </mxCell>
                <mxCell id="l1d5kA2Vwb8XIyjtGm8l-151" value="" style="ellipse;whiteSpace=wrap;html=1;align=center;aspect=fixed;resizable=0;points=[];outlineConnect=0;sketch=0;" parent="1" vertex="1">
                    <mxGeometry x="170" y="332.5" width="10" height="10" as="geometry"/>
                </mxCell>
                <mxCell id="l1d5kA2Vwb8XIyjtGm8l-41" value="«component»&lt;br&gt;&lt;b&gt;MQTT Server&lt;/b&gt;" style="html=1;dropTarget=0;whiteSpace=wrap;horizontal=1;verticalAlign=top;strokeColor=#330000;" parent="1" vertex="1">
                    <mxGeometry x="835" y="600" width="200" height="120" as="geometry"/>
                </mxCell>
                <mxCell id="l1d5kA2Vwb8XIyjtGm8l-42" value="" style="shape=module;jettyWidth=8;jettyHeight=4;" parent="l1d5kA2Vwb8XIyjtGm8l-41" vertex="1">
                    <mxGeometry x="1" width="20" height="20" relative="1" as="geometry">
                        <mxPoint x="-27" y="7" as="offset"/>
                    </mxGeometry>
                </mxCell>
                <mxCell id="6" value="«component»&lt;br&gt;&lt;b&gt;MQTT Broker&lt;/b&gt;" style="html=1;dropTarget=0;whiteSpace=wrap;horizontal=1;verticalAlign=middle;" parent="1" vertex="1">
                    <mxGeometry x="855" y="666" width="160" height="41" as="geometry"/>
                </mxCell>
                <mxCell id="7" value="" style="shape=module;jettyWidth=8;jettyHeight=4;" parent="6" vertex="1">
                    <mxGeometry x="1" width="20" height="20" relative="1" as="geometry">
                        <mxPoint x="-27" y="7" as="offset"/>
                    </mxGeometry>
                </mxCell>
                <mxCell id="9" value="" style="endArrow=none;html=1;entryX=0;entryY=0.5;entryDx=0;entryDy=0;exitX=1;exitY=0.5;exitDx=0;exitDy=0;exitPerimeter=0;" parent="1" source="l1d5kA2Vwb8XIyjtGm8l-45" target="6" edge="1">
                    <mxGeometry width="50" height="50" relative="1" as="geometry">
                        <mxPoint x="785" y="790" as="sourcePoint"/>
                        <mxPoint x="835" y="740" as="targetPoint"/>
                    </mxGeometry>
                </mxCell>
            </root>
        </mxGraphModel>
    </diagram>
</mxfile>